<svg version="1.1" xmlns="http://www.w3.org/2000/svg" viewBox="0 0 1175 592.2519352324493" width="1175" height="592.2519352324493">
  <!-- svg-source:excalidraw -->
  
  <defs>
    <style>
      @font-face {
        font-family: "Virgil";
        src: url("https://excalidraw.com/Virgil.woff2");
      }
      @font-face {
        font-family: "Cascadia";
        src: url("https://excalidraw.com/Cascadia.woff2");
      }
    </style>
  </defs>
  <rect x="0" y="0" width="1175" height="592.2519352324493" fill="#ffffff"></rect><g stroke-linecap="round" transform="translate(141.5 51) rotate(0 165 28)"><path d="M0.06 0.14 C77.55 -1.32, 154.69 0.32, 330.59 1 M-0.67 0.56 C129.89 0.63, 260.48 0.87, 330.55 -0.1 M332 -1.8 C332.3 22.77, 330 41.81, 328.8 56.72 M330.67 0.29 C331 18.58, 329.92 35.53, 330.53 55.83 M328.96 54.75 C258.35 56.95, 187.31 56.61, -1.05 54.97 M330.66 56.52 C204.67 55, 78.66 55.98, -0.07 56.53 M0.98 55.51 C-2.22 42.09, -1.07 27.86, -1.82 0.27 M-0.75 56.86 C-0.83 38.5, -0.21 22.05, -0.94 -0.18" stroke="#000000" stroke-width="1" fill="none"></path></g><g stroke-linecap="round" transform="translate(141.5 147) rotate(0 165 28)"><path d="M1.04 0.67 C113.89 -2.18, 230.86 -2.31, 331.07 -0.58 M-0.17 -0.63 C120.33 -1.35, 240.55 -1.73, 330.09 0.01 M331.72 -1.62 C328.71 16.58, 329.63 32.06, 329.65 54.6 M329.53 -0.64 C330.22 16.9, 329.97 35.92, 330.19 57 M329.13 56.08 C202.36 56.08, 73.06 56.47, -1.35 56.54 M330.37 56.5 C198.55 57.33, 66.51 57.25, 0.68 56.3 M1.53 57.25 C-0.62 38.13, -0.12 24.36, -0.22 -0.48 M0.54 55.79 C1.01 36.19, 1.15 16.27, -0.51 -0.93" stroke="#000000" stroke-width="1" fill="none"></path></g><g stroke-linecap="round" transform="translate(141.5 234) rotate(0 165 28)"><path d="M0 0 C0 0, 0 0, 0 0 M0 0 C0 0, 0 0, 0 0 M-0.72 5.85 C0.53 5.35, 2.29 3.25, 5.02 0.15 M-0.33 6.1 C1.52 3.82, 3.88 1.67, 5.36 0.47 M0.31 11.24 C5.82 6.43, 8.79 3.82, 9.37 0.8 M-0.11 11.42 C3.23 8.53, 4.8 5.95, 10.29 -0.24 M1.45 18.15 C3.78 14.86, 7.79 5.86, 15.26 -1.49 M-0.21 18.95 C4.06 13.63, 7.32 10.46, 15.4 0.43 M-0.05 22.36 C9.21 14.23, 18.08 6.41, 22.32 0.65 M1.02 24.17 C7.43 15.15, 13.48 7.27, 21 -0.35 M-1.77 32.37 C10.14 19.23, 21.17 5.4, 26.81 -0.12 M-0.14 29.51 C9.57 18.04, 20.45 6.89, 25.99 0.07 M-1.32 38.28 C12.11 22.61, 26.26 8.75, 33.49 -1.31 M-0.04 36.83 C11.55 23.41, 23.26 11.52, 31.05 0.75 M-1.22 41.72 C14.09 27.83, 23.63 12.93, 37.17 1.61 M-0.73 42.11 C14.13 26.76, 28.76 11.33, 37.26 0.62 M0.17 48.11 C16.26 27.88, 35.09 11.27, 40.97 1.1 M0.09 49.23 C14.87 31.06, 30.56 13.36, 42.34 -0.96 M-1.63 53.3 C15.99 39.85, 28.62 21.96, 46.18 1.51 M0.56 55.21 C19.73 33.21, 36.89 12.12, 47.33 -0.68 M3.12 56.5 C15.2 42.68, 31.45 26.09, 54.55 0.98 M2.07 58.78 C17.97 39.09, 35.09 21.27, 52.86 -0.76 M6.89 57.01 C20.84 44.39, 33.05 29.73, 58.1 -0.56 M7.52 57.66 C26.22 36.31, 45.69 14.06, 57.85 0.62 M13.91 58.41 C30.12 41.85, 44.25 22.22, 65.45 0.49 M13.36 58.34 C32.06 36.29, 51.98 13.21, 63.7 -0.21 M16.51 56.69 C34.52 38.83, 53.15 21.6, 67.59 -0.62 M17.83 58.87 C36.17 38.42, 54.62 16.29, 69.04 -0.81 M24.19 55.99 C38.39 40.3, 53.74 24.56, 76.26 0.91 M24.88 58.08 C39.15 42.03, 52.28 25.47, 73.95 -0.18 M27.41 58.51 C48.72 34.54, 67.59 15.04, 77.72 -0.6 M27.9 58.18 C45.74 39.42, 63.63 18.89, 78.67 0.88 M33.9 56.44 C44.68 46.45, 57.74 32.16, 87.03 0.6 M34.95 58.27 C50.77 40.7, 65.61 22.08, 85.79 0.18 M40.5 57.94 C54.66 36.31, 72.45 18.04, 89.95 1.65 M40.45 58.87 C58.7 35.98, 79.05 13.59, 89.03 -0.23 M45.41 59.04 C62.68 35.29, 85.44 13.97, 97.17 1.01 M44.43 57.44 C60.43 38.9, 77.78 20.67, 95.41 0.4 M52.07 57.59 C61.24 44.34, 75.25 31.79, 102.17 -1.61 M50.23 58.92 C66.36 40.73, 81.66 20.91, 99.98 -0.89 M57.45 57.17 C72.86 40.88, 87.68 21.23, 107.51 0.7 M55.74 57.28 C73.33 37.31, 91.96 15.63, 106.06 -0.28 M59.85 57.1 C73.39 45.85, 82.35 32.56, 110.66 1.97 M61.07 58.01 C72.91 43.66, 87.24 28.54, 111.93 0.39 M66.54 57.06 C87.5 36.75, 107.78 13.03, 117.64 2.06 M65.18 58.45 C75.78 45.92, 88.77 32.42, 116.39 0.86 M72.93 59.27 C88.18 40.14, 103.91 18.11, 120.12 -1.18 M70.83 58.52 C85.84 41.09, 101.92 23.72, 122.81 0.27 M75.56 56.76 C88.17 44.24, 101.18 27.54, 126.52 2.32 M76.59 58.56 C91.12 40.31, 107.74 21.54, 126.06 -0.06 M81.84 59.95 C97.44 37.8, 115.47 20.78, 133.65 -0.52 M82.41 58.55 C101.02 37, 118.11 16.41, 133.12 -0.37 M87.81 56.68 C96.3 48.29, 105.79 34.55, 138.53 0.07 M86.35 57.68 C103.12 40.15, 120.95 20.59, 136.8 0.08 M92.5 58.09 C104.7 40.19, 120.12 25.84, 142.74 0.59 M92.77 58.88 C111.93 35.69, 130.86 14.07, 142.91 0.55 M95.69 58.59 C116.8 36.28, 136.1 14.64, 148.15 2.24 M97.08 58.33 C109.06 45.39, 121.65 32.12, 148.05 -0.66 M104.25 57.76 C120.49 37.78, 138.76 15.7, 153.31 -1.15 M103.92 58.01 C118.83 39.44, 136.06 19.59, 154.76 -0.69 M109.97 60.32 C127.12 37.68, 145.16 12.28, 157.22 -1.16 M107.92 59.22 C121.46 42.76, 134.97 26.37, 159.29 0.47 M115.83 58.08 C133.86 33.63, 152.38 10.43, 163.67 1.09 M113.89 57.13 C133.42 35.3, 152.1 14.22, 164.8 -0.59 M117.85 57.83 C133.3 42.27, 146.04 25.72, 169.03 0.98 M119.56 58.28 C135.91 39.86, 152.49 20.02, 169.07 -0.06 M123.39 59.3 C146.52 34.93, 165.45 10.25, 174.56 -1.78 M123.79 57.15 C141.62 37.54, 159.48 17.08, 175.72 0.53 M128.93 59.13 C150.39 37.44, 167.19 14.13, 178.24 -1.13 M129.26 57.64 C141.32 45.29, 151.53 32.86, 179.95 0.92 M134.46 56.75 C145.49 43.87, 155.39 31.78, 187.09 -0.76 M134.75 57.66 C147.11 44.12, 159.54 28.6, 185.74 -0.43 M141.21 58.37 C151.06 44.61, 165.54 29.91, 188.95 -0.18 M139.81 58.63 C157.38 37.47, 176.06 17.96, 191.57 0.27 M146.01 58.86 C160.34 43.44, 173.2 29.26, 196.81 1.25 M144.98 57.99 C163.6 37.41, 179.83 17.41, 195.65 -0.39 M151.1 57.76 C164.45 41.97, 183.15 22.64, 200.63 -1.78 M150.53 58.78 C165.2 43.27, 179.51 27.46, 201.61 -0.44 M158.41 57.15 C174.21 33.93, 194.9 10.9, 207.65 -0.57 M156.69 58.13 C170.33 42, 184.07 26.44, 207.75 -1.04 M163.42 57.62 C171.66 45.73, 184.91 31.19, 210.19 1.55 M162.33 58.83 C177.92 38.75, 195.31 18.52, 212.77 0.08 M165.43 56.22 C178.21 43.94, 191.1 32.47, 217.96 1.08 M167.18 57.8 C185.1 37.59, 202.97 16.27, 216.93 0.13 M173.39 58.36 C188.67 38.46, 209.15 16.8, 221.92 0.39 M172.62 57.71 C184.55 42.82, 196.87 30.15, 221.83 -0.2 M175.57 56.54 C188.92 45.59, 200.19 32.41, 226.51 -0.43 M177.13 58.18 C189.92 43.65, 204.24 27.18, 227.59 -1.19 M184.64 58.49 C196.58 41.8, 210.16 26.99, 233.53 -1.57 M182.38 57.58 C197.69 41.2, 211.08 25.62, 232.6 0.41 M188.75 57.4 C201.73 45.92, 213.17 31.28, 237.78 1.13 M188.2 57.86 C204.32 37.3, 222.86 18.41, 238.04 -0.33 M195.21 56.59 C204.52 44.73, 216.86 32.7, 242.14 -1.58 M193.15 58.77 C209.05 41.81, 224.19 23.79, 242.94 0.28 M198.29 59.45 C212.95 39.05, 230.73 21.91, 250.67 -0.18 M198.19 58.43 C214.73 39.99, 230.37 20.43, 248.11 0.31 M203.53 57.36 C217.58 42.41, 231.27 23.38, 254.27 0.24 M203.98 58.84 C218.61 40.65, 234.33 22.28, 253.77 -0.49 M207.58 59.67 C225.73 40.31, 242.43 18.24, 260.49 0.04 M208.55 58.42 C227.72 35.91, 248.04 11.43, 260.2 0.81 M214.47 57.59 C228.17 45.5, 238.77 30.14, 263.84 -1.16 M214.51 57.54 C229.63 42.7, 243.42 25.81, 266.03 0.88 M219.43 58.16 C239.06 38.64, 253.66 17.89, 271.62 -0.44 M218.81 59.05 C236.27 40.68, 252.53 21.29, 270.9 -0.33 M225.26 56.16 C239.48 41.92, 251.03 30.85, 274.19 -1.73 M225.9 57.81 C234.7 46.59, 246.21 33.11, 275.73 -1.1 M230.05 60.08 C241.56 48.33, 250.05 35.04, 278.83 0.21 M229.52 59.25 C246.88 39.63, 264.27 19.78, 281.37 -0.37 M235.57 56.02 C247.7 48.11, 256.74 34.04, 288.05 1.67 M235.86 58.83 C257.1 33.7, 276.82 10.5, 286.91 0.76 M239.05 57.7 C253.43 47.77, 262.79 34.59, 293.34 1.95 M241.3 58.66 C252.64 44.72, 263.05 31.76, 292.31 0.59 M245.48 58.27 C258.34 46.41, 267.3 35.26, 297.57 1.29 M245.65 56.96 C265.5 35.59, 283.89 15.31, 296.68 -0.65 M251.45 56.38 C263.44 44.34, 276.12 33.29, 300.73 0.8 M251.81 58.62 C266.44 40.64, 280.78 24.99, 302.96 0.7 M257.44 56.04 C269.68 42.04, 281.04 27.48, 306.3 0.44 M257.07 58.75 C276.62 36.27, 294.98 14.97, 308.17 0.29 M263.67 56.59 C282.47 38.17, 300.3 14.83, 311.01 -1.1 M262.76 59.17 C279.15 36.68, 298.06 16.31, 312.1 -0.71 M266.35 56.6 C282.09 39.76, 297.59 19.92, 319.19 -0.43 M267.48 57.98 C281.12 42.7, 294.94 25.42, 317.57 -1.12 M273.55 59.86 C284.83 43.36, 301.48 27.76, 324.58 -1.53 M272.88 58.05 C288.72 38.14, 306.69 19.96, 323.09 -0.13 M277.48 59.29 C296.16 39.2, 311.05 23.22, 328.62 -1.82 M278.79 58.61 C290.05 42.57, 303.64 28.2, 329.12 -0.87 M282.33 58.86 C296.29 42.11, 308.83 28.3, 332.31 2.08 M282.99 57.72 C299.58 40.69, 313.41 22.88, 332.82 1.46 M288.53 57.55 C302.65 39.85, 320.4 23.96, 333.14 9.2 M288.43 57.82 C302.79 41.52, 316.48 25.37, 332.89 7.06 M292.65 59.31 C300.79 46.49, 313.4 38.34, 330.84 13.69 M294.92 58.31 C303.35 46.46, 313.53 36.19, 332.19 14.55 M298.95 57.68 C308.76 47.64, 315.09 38.5, 333.85 19.79 M299.74 57.75 C311.93 43.13, 324.84 28.4, 332.14 20.55 M306.56 58.04 C314.17 47.55, 319.7 38.99, 332.34 26 M304.58 58.69 C311.88 48.99, 318.24 41.05, 332.68 25.46 M310.54 57.79 C316.37 53.88, 318.27 47.1, 331.96 31.75 M309.58 57.46 C315.66 52.33, 319.79 46.36, 331.87 32.7 M315.52 56.98 C321.81 52.8, 324.94 46.39, 330.85 37.6 M314.89 57.41 C320.03 50.81, 325.98 44.89, 331.83 38.54 M321.42 58.36 C325.03 53.92, 331.32 47.11, 330.91 43.59 M319.46 58.48 C323.56 54.93, 328.07 49.95, 331.84 44.84 M326.13 57.59 C327.5 55.64, 329.25 53.47, 332.62 49.83 M326.36 57.88 C327.92 56.25, 329.72 54.07, 332.57 50.91" stroke="#fa5252" stroke-width="0.5" fill="none"></path><path d="M-0.34 -0.33 C127.43 -1.72, 257.66 -1.9, 329.4 0.61 M0.56 -0.12 C76.88 0.4, 155.36 0.67, 330.43 0.06 M328.7 1.16 C331.17 17.45, 331.05 31.18, 329.31 55.8 M330.52 0.03 C329.69 19.22, 329.3 38.25, 330.95 56.98 M329.61 56.82 C244.9 54.51, 159.89 55.63, -1.14 56.26 M330.68 55.71 C200.68 57.96, 71.57 58.77, -0.43 56.47 M-0.43 55.72 C-1.82 46.31, -1.61 33.79, 0.85 -0.16 M0.17 55.21 C-0.21 37.93, -0.12 21.59, -0.86 0.44" stroke="#000000" stroke-width="1" fill="none"></path></g><g stroke-linecap="round" transform="translate(141.5 340) rotate(0 165 28)"><path d="M0.11 -0.23 C130.14 -0.9, 261.82 -0.61, 331.14 1.08 M-0.07 0.24 C124.52 0.9, 249.33 0.8, 329.77 0.31 M331.96 -0.88 C328.96 11.89, 329.84 26.61, 329.01 55.16 M330.19 0.92 C330.98 12.62, 331.22 22.84, 330.28 55.62 M330.95 54.66 C202.92 53.5, 73.3 54.39, -0.93 57.09 M329.95 56.06 C250.02 56.76, 170.08 56.42, -0.13 55.47 M0.89 54.68 C-1.41 39.62, -1.47 22.23, 1.97 -0.91 M-0.57 56.06 C-1.07 44.1, -0.06 29.96, 0.33 0.04" stroke="#000000" stroke-width="1" fill="none"></path></g><g stroke-linecap="round" transform="translate(141.5 432.36632535328977) rotate(0 165 28)"><path d="M-1 0.99 C101.4 0.32, 199.6 -2.01, 329.44 -0.39 M-0.63 0.27 C118.2 1.08, 238.18 1.47, 330.67 0.68 M331.77 1.6 C328.9 15.82, 328.19 30.51, 328.42 55.57 M329.42 0.19 C330.05 15.95, 329.71 32.1, 329.71 56.17 M329.88 56.25 C255.81 54.85, 183.08 53.35, -0.05 55.07 M329.48 56.64 C250.23 54.59, 170.01 54.6, 0.45 56.32 M-0.44 56.11 C-0.7 45.55, -0.55 33.04, -0.71 -1.15 M-0.5 56.3 C0.52 42.77, 1.28 29.17, 0.44 -0.17" stroke="#000000" stroke-width="1" fill="none"></path></g><g stroke-linecap="round" transform="translate(141.5 513) rotate(0 165 28)"><path d="M0 0 C0 0, 0 0, 0 0 M0 0 C0 0, 0 0, 0 0 M0.41 6.16 C2.07 4.87, 3.33 2.38, 5.47 0.78 M-0.28 6.2 C1.34 4.33, 3.34 1.92, 4.89 0.39 M-0.61 11.22 C3.38 9.87, 3.98 6.78, 10.13 1.53 M0.37 11.95 C2.18 9.34, 5.69 6.4, 11.14 0.26 M0.66 17.01 C7.55 12.55, 14.08 4.65, 16.99 2.01 M-0.7 18.4 C2.31 14.96, 7.36 10.6, 15.74 0.81 M1.79 25.26 C7.56 17.49, 13.58 6.65, 19.46 -1.23 M-0.31 24.51 C5.83 17.33, 13.15 10.04, 22.15 0.22 M-0.83 28.78 C5.66 23.26, 12.54 13.62, 25.86 2.27 M0.2 30.59 C7.28 21.01, 16.36 10.92, 25.4 -0.11 M-0.45 38.77 C8.99 23.68, 20.76 13.86, 32.99 -0.57 M0.12 37.37 C12.13 23.37, 22.62 10.38, 32.47 -0.42 M0.93 40.78 C6.59 35.57, 13.28 25.04, 37.88 0.02 M-0.53 41.79 C11.74 29.43, 25.01 15.13, 36.14 0.03 M-0.28 48.99 C9.74 33.71, 22.9 21.96, 42.08 0.54 M-0.01 49.77 C16.26 29.91, 32.27 11.66, 42.25 0.5 M-1.69 54.77 C18.19 33.86, 36.27 13.61, 47.49 2.19 M-0.3 54.51 C10.95 42.45, 22.77 30.06, 47.39 -0.71 M3.6 57.71 C19.84 37.73, 38.11 15.65, 52.65 -1.2 M3.26 57.96 C18.18 39.39, 35.4 19.54, 54.1 -0.74 M9.32 60.27 C26.46 37.63, 44.5 12.23, 56.56 -1.21 M7.26 59.17 C20.81 42.71, 34.32 26.32, 58.63 0.42 M15.18 58.03 C33.2 33.58, 51.72 10.38, 63.02 1.04 M13.23 57.08 C32.76 35.25, 51.44 14.17, 64.14 -0.64 M17.2 57.78 C32.65 42.22, 45.38 25.67, 68.37 0.93 M18.91 58.23 C35.25 39.81, 51.83 19.98, 68.41 -0.11 M22.73 59.25 C45.86 34.88, 64.8 10.2, 73.9 -1.83 M23.13 57.1 C40.97 37.49, 58.82 17.03, 75.06 0.48 M28.27 59.08 C49.73 37.39, 66.53 14.08, 77.58 -1.18 M28.61 57.59 C40.66 45.24, 50.87 32.81, 79.29 0.87 M33.8 56.7 C44.84 43.82, 54.74 31.73, 86.43 -0.81 M34.1 57.62 C46.45 44.07, 58.89 28.55, 85.09 -0.48 M40.55 58.32 C50.4 44.56, 64.88 29.86, 88.29 -0.23 M39.15 58.58 C56.72 37.42, 75.4 17.91, 90.92 0.22 M45.36 58.81 C59.68 43.39, 72.54 29.21, 96.15 1.2 M44.32 57.94 C62.95 37.36, 79.17 17.36, 94.99 -0.44 M50.44 57.71 C63.79 41.92, 82.49 22.59, 99.97 -1.83 M49.88 58.73 C64.54 43.22, 78.85 27.41, 100.95 -0.49 M57.75 57.1 C73.55 33.88, 94.24 10.85, 106.99 -0.62 M56.03 58.08 C69.67 41.95, 83.42 26.39, 107.09 -1.09 M62.76 57.57 C71.01 45.68, 84.26 31.14, 109.53 1.5 M61.67 58.78 C77.27 38.7, 94.65 18.47, 112.11 0.03 M64.11 56.92 C76.89 44.65, 89.78 33.18, 116.65 1.79 M65.87 58.51 C83.79 38.29, 101.65 16.98, 115.61 0.83 M72.73 58.31 C88.01 38.41, 108.49 16.75, 121.26 0.34 M71.96 57.66 C83.9 42.77, 96.21 30.1, 121.17 -0.25 M74.91 56.49 C88.12 45.71, 99.23 32.7, 125.19 0.28 M76.47 58.13 C89.09 43.79, 103.25 27.52, 126.28 -0.48 M83.98 58.44 C95.92 41.75, 109.51 26.94, 132.87 -1.62 M81.72 57.53 C97.03 41.15, 110.42 25.57, 131.94 0.36 M88.09 57.35 C101.08 45.87, 112.51 31.24, 137.13 1.08 M87.55 57.81 C103.66 37.25, 122.2 18.36, 137.39 -0.38 M94.55 56.54 C103.86 44.68, 116.21 32.65, 141.49 -1.63 M92.49 58.72 C108.4 41.76, 123.53 23.74, 142.28 0.23 M97.63 59.4 C112.29 39, 130.07 21.86, 150.01 -0.23 M97.53 58.38 C114.08 39.94, 129.71 20.38, 147.46 0.26 M102.88 57.31 C116.92 42.37, 130.61 23.33, 153.61 0.19 M103.33 58.79 C117.95 40.6, 133.67 22.23, 153.11 -0.54 M106.92 59.62 C125.07 40.26, 141.78 18.19, 159.83 -0.01 M107.89 58.37 C127.06 35.86, 147.38 11.38, 159.54 0.76 M113.81 57.54 C127.51 45.45, 138.12 30.09, 163.18 -1.21 M113.86 57.49 C128.97 42.65, 142.76 25.76, 165.37 0.83 M118.78 58.11 C138.4 38.59, 153.01 17.84, 170.96 -0.49 M118.15 59 C135.62 40.63, 151.88 21.24, 170.24 -0.38 M124.6 56.11 C138.82 41.87, 150.37 30.8, 173.53 -1.78 M125.24 57.76 C134.05 46.54, 145.55 33.06, 175.07 -1.15 M129.39 60.03 C140.9 48.28, 149.39 34.99, 178.18 0.16 M128.86 59.2 C146.23 39.58, 163.61 19.73, 180.72 -0.42 M134.92 55.98 C147.04 48.06, 156.09 33.99, 187.39 1.62 M135.2 58.79 C156.44 33.65, 176.16 10.45, 186.25 0.71 M138.39 57.65 C152.77 47.72, 162.13 34.54, 192.68 1.9 M140.65 58.61 C151.98 44.67, 162.39 31.71, 191.65 0.54 M144.82 58.22 C157.68 46.36, 166.64 35.21, 196.91 1.24 M144.99 56.91 C164.84 35.54, 183.23 15.26, 196.02 -0.7 M150.79 56.33 C162.78 44.29, 175.46 33.24, 200.07 0.76 M151.16 58.57 C165.79 40.59, 180.12 24.94, 202.3 0.65 M156.79 55.99 C169.02 41.99, 180.38 27.43, 205.64 0.39 M156.41 58.7 C175.96 36.22, 194.32 14.92, 207.51 0.24 M163.01 56.54 C181.82 38.12, 199.64 14.78, 210.35 -1.15 M162.1 59.12 C178.49 36.63, 197.4 16.26, 211.44 -0.76 M165.69 56.55 C181.43 39.71, 196.94 19.87, 218.53 -0.48 M166.83 57.93 C180.47 42.65, 194.28 25.37, 216.91 -1.17 M172.89 59.81 C184.18 43.31, 200.82 27.72, 223.93 -1.58 M172.22 58.01 C188.07 38.09, 206.04 19.91, 222.43 -0.18 M176.17 59.99 C195.06 39.67, 210.16 23.46, 227.96 -1.87 M177.47 59.31 C188.89 43.08, 202.64 28.52, 228.46 -0.92 M181.67 58.81 C196.16 41.45, 209.22 27.04, 233.62 -0.24 M182.33 57.67 C199.54 39.95, 213.99 21.44, 234.13 -0.85 M187.22 58.26 C203.89 37.59, 224.21 18.74, 239.04 1.6 M187.11 58.53 C203.78 39.55, 219.74 20.8, 238.79 -0.54 M191.99 59.26 C202.96 43.1, 218.48 31.6, 242.65 -0.7 M194.27 58.26 C205.81 42.84, 219.03 29.09, 243.99 0.16 M198.29 57.63 C212.49 42.55, 223.2 28.36, 250.25 0.12 M199.08 57.7 C218.17 35.22, 237.85 12.71, 248.54 0.88 M205.9 57.99 C220.4 39.59, 232.73 23.19, 254.65 -0.47 M203.92 58.64 C217.18 42.13, 229.44 27.4, 254.99 -1.01 M209.88 57.74 C222.38 46.11, 230.75 31.89, 259.52 -0.75 M208.92 57.41 C221.81 44.52, 232.71 30.76, 259.42 0.2 M214.86 56.93 C232.15 39.57, 246.53 20.21, 263.65 -0.94 M214.23 57.36 C230.61 37.78, 248.12 18.58, 264.64 0 M220.9 58.3 C240.04 36.47, 261.89 11.81, 268.83 -1.13 M218.72 58.44 C235.18 41.2, 251.87 22.23, 269.87 0.26 M225.74 57.11 C239.56 41.09, 253.91 24.27, 276.1 -1.43 M226.19 57.69 C239.46 42.71, 253.25 26.63, 276.01 0.72 M230.67 57.14 C246.04 43.22, 258.63 23.6, 281.6 -0.01 M230.12 58.78 C245.63 41.18, 260.86 23.35, 281.35 -0.43 M234.8 56.63 C248.02 44.27, 259.76 31.04, 284.85 -1.15 M235.83 58.57 C249.74 42.64, 263.92 26.51, 286.74 -1.08 M240.91 60.17 C259.08 37.72, 273.81 20.96, 292.6 -1.32 M241.28 58.62 C251.73 46.1, 263.08 32.98, 291.38 -0.63 M245.73 56.69 C266.31 36.63, 282.08 13.44, 295.14 -1.23 M247.23 57.69 C263.83 37.18, 282.51 15.96, 297.98 -0.46 M249.76 59.38 C269.08 36.73, 288.47 14.54, 302.06 0.11 M251.95 57.35 C266.1 42.66, 279.65 25.72, 302.52 0.59 M255.59 59.61 C273.55 38.64, 289.77 20.22, 306.64 1.31 M257.51 58.41 C277.94 34.66, 297.15 12.41, 307.45 -0.25 M261.74 58.88 C279.71 38.26, 293.6 19.2, 313.59 0.56 M262.4 58.56 C273.5 43.78, 288.06 29.8, 313.39 0.86 M268.89 58.76 C283.84 38.92, 296.63 22.84, 319.42 -0.46 M267.85 58.81 C279.29 44.67, 291.98 29.84, 318.4 -0.1 M273.79 56.85 C290.76 38.22, 309.74 16.78, 324.21 1.39 M272.45 59.06 C287.17 41.81, 302.04 23.9, 323.64 -0.48 M279.52 56.65 C297.31 33.78, 319.23 12.08, 327.95 -1.39 M278.46 58.65 C298.49 33.95, 318.93 11.88, 328.64 0.57 M285.28 59.58 C297.26 40.77, 316.03 20.27, 332.37 1.31 M282.47 57.85 C297.99 41.37, 312.74 25.45, 331.02 2.88 M288.77 58.85 C304.76 40.15, 319.71 23.48, 331.88 6.08 M289.63 58.42 C305.19 40.71, 320.78 22, 332.32 7.81 M295.95 59.45 C303.97 45.97, 313.95 32.62, 333.34 13.43 M294.37 57.13 C307.59 41.61, 321.49 25.6, 331.7 14.23 M298.7 56.8 C312.08 43.19, 320.91 31.77, 332.46 20.77 M298 59.06 C308.86 46.83, 318.03 35.59, 333.26 19.08 M303.96 56.94 C315.44 47.05, 322.5 35.1, 332.9 24.58 M304.62 57.32 C312.77 48.36, 322.12 37.93, 333.02 26.2 M308.74 58.75 C315.17 49, 322.51 43.06, 329.98 33.1 M310.24 57.93 C315.85 50.47, 324.42 42.79, 331.53 32.53 M315.87 58.6 C320.96 50.09, 327.87 45.91, 333.69 36.5 M315.23 58.02 C320.16 52.69, 323.24 49.06, 332.83 38.95 M321.6 60.12 C325.62 54.5, 329.85 47.97, 333.68 43.27 M320.13 58.39 C322.71 54.99, 325.07 53.16, 332.41 44.11 M325.27 58.56 C327.1 55.23, 330.79 52.75, 333.1 50.24 M326.31 57.53 C328.07 55.28, 330.15 53.65, 332.72 50.9" stroke="#fa5252" stroke-width="0.5" fill="none"></path><path d="M-1.01 0.19 C126.36 -2.37, 252.23 -0.51, 328.85 -0.49 M-0.67 -0.03 C110.81 0.37, 222.71 -0.26, 329.5 0.52 M329.38 -1.4 C329.84 12.73, 332.04 22.96, 331.99 56.87 M330.42 0.44 C329.87 17.56, 329.16 34.07, 330.75 56.46 M330.67 55.83 C215.55 56.67, 102.65 57.8, -0.05 57.07 M330.64 56.46 C204.84 57.61, 80.72 57.34, -0.68 55.78 M0.25 57.24 C-2.08 34.62, 1.06 14.12, 1.5 1.32 M-0.73 55.64 C-0.74 37.79, 0.59 20.23, -0.26 0.71" stroke="#000000" stroke-width="1" fill="none"></path></g><g transform="translate(216 66.5) rotate(0 90.5 12.5)"><text x="0" y="18" font-family="Virgil, Segoe UI Emoji" font-size="20px" fill="#000000" text-anchor="start" style="white-space: pre;" direction="ltr">Download installer</text></g><g transform="translate(243.5 162.5) rotate(0 63 12.5)"><text x="0" y="18" font-family="Virgil, Segoe UI Emoji" font-size="20px" fill="#000000" text-anchor="start" style="white-space: pre;" direction="ltr">Run installer</text></g><g transform="translate(164.5 237) rotate(0 142 25)"><text x="0" y="18" font-family="Virgil, Segoe UI Emoji" font-size="20px" fill="#000000" text-anchor="start" style="white-space: pre;" direction="ltr">Get an error message during</text><text x="0" y="43" font-family="Virgil, Segoe UI Emoji" font-size="20px" fill="#000000" text-anchor="start" style="white-space: pre;" direction="ltr">installation</text></g><g transform="translate(212.5 355.5) rotate(0 94 12.5)"><text x="0" y="18" font-family="Virgil, Segoe UI Emoji" font-size="20px" fill="#000000" text-anchor="start" style="white-space: pre;" direction="ltr">Troubleshoot issue</text></g><g transform="translate(234 449.5) rotate(0 72.5 12.5)"><text x="0" y="18" font-family="Virgil, Segoe UI Emoji" font-size="20px" fill="#000000" text-anchor="start" style="white-space: pre;" direction="ltr">Rerun installer</text></g><g transform="translate(212.5 528.5) rotate(0 94 12.5)"><text x="0" y="18" font-family="Virgil, Segoe UI Emoji" font-size="20px" fill="#000000" text-anchor="start" style="white-space: pre;" direction="ltr">Get another error!</text></g><g stroke-linecap="round"><g transform="translate(475 539) rotate(0 86.67712413865672 -78.63367464671029)"><path d="M0.68 0.35 C20.17 0.38, 88.03 15.09, 117.02 -0.16 C146 -15.41, 175.83 -65.29, 174.6 -91.16 C173.38 -117.03, 138.81 -143.39, 109.67 -155.39 C80.53 -167.39, 18.02 -161.82, -0.24 -163.15 M-0.42 -0.51 C19 -0.78, 87.51 13.72, 116.65 -1.74 C145.79 -17.21, 175.59 -67.38, 174.41 -93.32 C173.24 -119.26, 138.86 -145.79, 109.58 -157.38 C80.29 -168.96, 17.23 -161.62, -1.28 -162.84" stroke="#000000" stroke-width="1" fill="none"></path></g><g transform="translate(475 539) rotate(0 86.67712413865672 -78.63367464671029)"><path d="M27.3 -171.76 C19.76 -168.28, 9.98 -167.87, 0.53 -161.48 M25.93 -174.23 C18.45 -171.38, 11.03 -167.63, -1.52 -161.92" stroke="#000000" stroke-width="1" fill="none"></path></g><g transform="translate(475 539) rotate(0 86.67712413865672 -78.63367464671029)"><path d="M27.67 -151.24 C20.07 -154.1, 10.18 -160.01, 0.53 -161.48 M26.3 -153.71 C18.51 -156.78, 10.98 -158.94, -1.52 -161.92" stroke="#000000" stroke-width="1" fill="none"></path></g></g><g stroke-linecap="round"><g transform="translate(72 60) rotate(0 0.44300800728336753 260.4836075984128)"><path d="M0.85 -0.16 C1.15 86.83, 1.08 433.84, 0.83 520.81 M-0.16 -1.28 C0.13 85.99, 0.58 435.42, 0.32 522.25" stroke="#000000" stroke-width="1" fill="none"></path></g><g transform="translate(72 60) rotate(0 0.44300800728336753 260.4836075984128)"><path d="M-10.19 495.44 C-8.24 499.12, -4.52 507.46, -1.47 522.25 M-10.73 493.98 C-7.24 500.48, -5.31 505.34, 0.29 521.31" stroke="#000000" stroke-width="1" fill="none"></path></g><g transform="translate(72 60) rotate(0 0.44300800728336753 260.4836075984128)"><path d="M10.33 495.45 C7.75 499.28, 6.94 507.61, -1.47 522.25 M9.79 493.99 C9.1 500.62, 6.83 505.48, 0.29 521.31" stroke="#000000" stroke-width="1" fill="none"></path></g></g><g transform="translate(10 65) rotate(0 21 12.5)"><text x="0" y="18" font-family="Virgil, Segoe UI Emoji" font-size="20px" fill="#000000" text-anchor="start" style="white-space: pre;" direction="ltr">Flow</text></g><g transform="translate(184 10) rotate(0 106.5 12.5)"><text x="0" y="18" font-family="Virgil, Segoe UI Emoji" font-size="20px" fill="#000000" text-anchor="start" style="white-space: pre;" direction="ltr">Installing a software</text></g><g transform="translate(731 57) rotate(0 217 37.5)"><text x="0" y="18" font-family="Virgil, Segoe UI Emoji" font-size="20px" fill="#000000" text-anchor="start" style="white-space: pre;" direction="ltr">Docker makes it really easy to install and </text><text x="0" y="43" font-family="Virgil, Segoe UI Emoji" font-size="20px" fill="#000000" text-anchor="start" style="white-space: pre;" direction="ltr">run software without worrying about </text><text x="0" y="68" font-family="Virgil, Segoe UI Emoji" font-size="20px" fill="#000000" text-anchor="start" style="white-space: pre;" direction="ltr">setup or dependencies.</text></g></svg>